<svg xmlns="http://www.w3.org/2000/svg" style="background:#fff;background-color:light-dark(#fff,#121212);color-scheme:light dark" width="420" height="130" baseProfile="full"><defs><pattern id="a" width="105" height="105" x="0" y="0" patternUnits="userSpaceOnUse"><path d="m0 90 15 15M0 75l30 30M0 60l45 45M0 45l60 60M0 30l75 75M0 15l90 90M0 0l105 105M15 0l90 90M30 0l75 75M45 0l60 60M60 0l45 45M75 0l30 30M90 0l15 15"/></pattern></defs><path style="fill:light-dark(azure,#245454)" fill="azure" d="M130 10h140v90H130z"/><path style="fill:light-dark(#fff,#121212);stroke:light-dark(#000,#ededed)" fill="#fff" stroke="#000" stroke-dasharray="3 2" d="M150 30h100v50H150z"/><path style="fill:light-dark(beige,#545418)" fill="beige" d="M160 40h80v30h-80z"/><text style="fill:light-dark(#000,#ededed)" x="290" y="24" font-family="sans-serif" font-size="10pt">Zone de remplissage</text><path style="stroke:light-dark(#000,#ededed)" stroke="#000" d="M288 93h-33"/><text style="fill:light-dark(#000,#ededed)" x="290" y="48" font-family="sans-serif" font-size="10pt">Bordure</text><path style="stroke:light-dark(#000,#ededed)" stroke="#000" d="M288 44h-38"/><text style="fill:light-dark(#000,#ededed)" x="290" y="71" font-family="sans-serif" font-size="10pt">Zone de contenu</text><path style="stroke:light-dark(#000,#ededed)" stroke="#000" d="m288 67-58-7"/><text style="fill:light-dark(#000,#ededed)" x="290" y="97" font-family="sans-serif" font-size="10pt">Zone de marge</text><path style="stroke:light-dark(#000,#ededed)" stroke="#000" d="m288 20-53 15"/><path style="stroke:light-dark(#000,#ededed)" fill="url(#a)" stroke="#000" d="M150 70h100v10H150z"/><path style="stroke:light-dark(#000,#ededed)" stroke="#000" d="M200 105V75"/><text style="fill:light-dark(#000,#ededed)" x="10" y="120" font-family="sans-serif" font-size="10pt">La hauteur de cette zone est définie par la valeur de padding-bottom</text><path style="stroke:light-dark(#000,#ededed)" stroke="#000" d="M136 70h8m-8 10h8m-4-10v10"/><text style="fill:light-dark(#000,#ededed)" x="20" y="77" font-family="'courier new',monospace" font-size="10pt">padding-bottom</text></svg>