<svg xmlns="http://www.w3.org/2000/svg" xmlns:xl="http://www.w3.org/1999/xlink" width="458pt" height="608pt" viewBox="76 112 458 608"><defs><linearGradient id="a" x1="0" x2="1" gradientUnits="userSpaceOnUse"><stop offset="0" stop-color="#e5f2f2"/><stop offset="1" stop-color="#cff2f2"/></linearGradient><linearGradient id="b" gradientTransform="matrix(0 65 -65 0 298.5 114)" xl:href="#a"/><linearGradient id="c" gradientTransform="rotate(90 -90.406 517.344) scale(72.75)" xl:href="#a"/><linearGradient id="d" gradientTransform="rotate(90 -162.919 346.794) scale(75.71692)" xl:href="#a"/><linearGradient id="e" gradientTransform="rotate(90 -114.643 298.518) scale(75.71692)" xl:href="#a"/><linearGradient id="f" gradientTransform="rotate(90 -210.009 396.259) scale(75.71692)" xl:href="#a"/><linearGradient id="g" gradientTransform="matrix(0 73.5 -73.5 0 183.25 289.375)" xl:href="#a"/><linearGradient id="h" gradientTransform="matrix(0 73.5 -73.5 0 426.938 293.5)" xl:href="#a"/><linearGradient id="i" gradientTransform="matrix(0 73.5 -73.5 0 426.938 377.5)" xl:href="#a"/><linearGradient id="j" gradientTransform="matrix(0 73.5 -73.5 0 426.938 461.5)" xl:href="#a"/><marker id="k" color="#000" markerHeight="8" markerUnits="strokeWidth" markerWidth="10" orient="auto" overflow="visible" viewBox="-1 -4 10 8"><path fill="currentColor" stroke="currentColor" d="M8 0 0-3v6Z"/></marker></defs><g fill="none"><path fill="url(#b)" d="M349.5 133.233c0-6.157-1.295-6.919-10.758-13.013l-.1-.063C329.13 114 329.031 114 319.268 114H247.5v65h102v-45.767Z"/><path stroke="#000" stroke-linecap="round" stroke-linejoin="round" d="M349.5 133.233c0-6.157-1.295-6.919-10.758-13.013l-.1-.063C329.13 114 329.031 114 319.268 114H247.5v65h102v-45.767Zm0-.317c0-5.84-.1-5.84-20.47-5.84h0c0-13.012 0-13.076-9.164-13.076"/><text fill="#000" transform="translate(252.5 138)"><tspan x="4.759" y="14" font-family="Helvetica" font-size="14" font-weight="500" textLength="82.482">manifest.json</tspan></text><path fill="#fff" d="M322.5 574h208.875v124.5H322.5z"/><path stroke="#000" stroke-dasharray="1 4" stroke-linecap="round" stroke-linejoin="round" d="M322.5 574h208.875v124.5H322.5Z"/><text fill="#000" transform="translate(366.71 580)"><tspan x="6.468" y="15" font-family="Helvetica Neue" font-size="16" font-weight="500" textLength="109.648">Content scripts</tspan></text><path fill="url(#c)" d="M495.587 629.277c0-6.892-1.744-7.745-14.481-14.565l-.135-.07c-12.804-6.892-12.937-6.892-26.078-6.892h-96.605v72.75h137.299v-51.223Z"/><path stroke="#000" stroke-linecap="round" stroke-linejoin="round" d="M495.587 629.277c0-6.892-1.744-7.745-14.481-14.565l-.135-.07c-12.804-6.892-12.937-6.892-26.078-6.892h-96.605v72.75h137.299v-51.223Zm0-.355c0-6.537-.135-6.537-27.553-6.537h0c0-14.564 0-14.635-12.337-14.635"/><text fill="#000" transform="translate(363.288 635.625)"><tspan x="33.041" y="14" font-family="Helvetica" font-size="14" font-weight="500" textLength="48.248">beastify</tspan><tspan x="80.257" y="14" font-family="Helvetica" font-size="14" font-weight="500" textLength="14">.js</tspan></text><path fill="#fff" d="M78.5 248.5h208.875v469H78.5z"/><path stroke="#000" stroke-dasharray="1 4" stroke-linecap="round" stroke-linejoin="round" d="M78.5 248.5h208.875v469H78.5Z"/><text fill="#000" transform="translate(126.75 256.625)"><tspan x=".232" y="15" font-family="Helvetica Neue" font-size="16" font-weight="500" textLength="16.288">Br</tspan><tspan x="16.232" y="15" font-family="Helvetica Neue" font-size="16" font-weight="500" textLength="91.536">owser action</tspan></text><path fill="#fff" d="M99.25 380.375h168V698.5h-168z"/><path stroke="#000" stroke-dasharray="1 4" stroke-linecap="round" stroke-linejoin="round" d="M99.25 380.375h168V698.5h-168Z"/><text fill="#000" transform="translate(159.875 386.987)"><tspan x=".288" y="15" font-family="Helvetica Neue" font-size="16" font-weight="500" textLength="47.424">Popup</tspan></text><path fill="url(#d)" d="M248.375 532.118c0-7.173-1.638-8.06-13.606-15.159l-.126-.073c-12.03-7.173-12.156-7.173-24.502-7.173h-90.766v75.717h129v-53.312Z"/><path stroke="#000" stroke-linecap="round" stroke-linejoin="round" d="M248.375 532.118c0-7.173-1.638-8.06-13.606-15.159l-.126-.073c-12.03-7.173-12.156-7.173-24.502-7.173h-90.766v75.717h129v-53.312Zm0-.37c0-6.803-.126-6.803-25.888-6.803h0c0-15.158 0-15.232-11.59-15.232"/><text fill="#000" transform="translate(124.375 539.072)"><tspan x="3.466" y="14" font-family="Helvetica" font-size="14" font-weight="500" textLength="115.958">choose_beast.css</tspan></text><path fill="url(#e)" d="M248.375 435.564c0-7.172-1.638-8.06-13.606-15.158l-.126-.074c-12.03-7.172-12.156-7.172-24.502-7.172h-90.766v75.717h129v-53.313Z"/><path stroke="#000" stroke-linecap="round" stroke-linejoin="round" d="M248.375 435.564c0-7.172-1.638-8.06-13.606-15.158l-.126-.074c-12.03-7.172-12.156-7.172-24.502-7.172h-90.766v75.717h129v-53.313Zm0-.37c0-6.802-.126-6.802-25.888-6.802h0c0-15.158 0-15.232-11.59-15.232"/><text fill="#000" transform="translate(124.375 442.518)"><tspan x=".742" y="14" font-family="Helvetica" font-size="14" font-weight="500" textLength="121.406">choose_beast.html</tspan></text><path fill="url(#f)" d="M250.75 628.671c0-7.173-1.638-8.06-13.606-15.158l-.126-.074c-12.03-7.172-12.156-7.172-24.502-7.172H121.75v75.716h129v-53.312Z"/><path stroke="#000" stroke-linecap="round" stroke-linejoin="round" d="M250.75 628.671c0-7.173-1.638-8.06-13.606-15.158l-.126-.074c-12.03-7.172-12.156-7.172-24.502-7.172H121.75v75.716h129v-53.312Zm0-.37c0-6.803-.126-6.803-25.888-6.803h0c0-15.157 0-15.231-11.59-15.231"/><text fill="#000" transform="translate(126.75 635.625)"><tspan x="8.911" y="14" font-family="Helvetica" font-size="14" font-weight="500" textLength="105.068">choose_beast.js</tspan></text><path fill="url(#g)" d="M247.5 311.124c0-6.963-1.632-7.824-13.553-14.715l-.126-.071c-11.984-6.963-12.108-6.963-24.407-6.963H119v73.5h128.5v-51.751Z"/><path stroke="#000" stroke-linecap="round" stroke-linejoin="round" d="M247.5 311.124c0-6.963-1.632-7.824-13.553-14.715l-.126-.071c-11.984-6.963-12.108-6.963-24.407-6.963H119v73.5h128.5v-51.751Zm0-.359c0-6.604-.126-6.604-25.787-6.604h0c0-14.714 0-14.786-11.546-14.786"/><text fill="#000" transform="translate(124 317.625)"><tspan x="25.002" y="14" font-family="Helvetica" font-size="14" font-weight="500" textLength="72.386">beasts.png</tspan></text><path fill="#fff" d="M322.5 248.5h208.875V554H322.5z"/><path stroke="#000" stroke-dasharray="1 4" stroke-linecap="round" stroke-linejoin="round" d="M322.5 248.5h208.875V554H322.5Z"/><path fill="#fff" d="M328.438 254h197v30h-197z"/><text fill="#000" transform="translate(333.438 260)"><tspan x=".316" y="15" font-family="Helvetica Neue" font-size="16" font-weight="500" textLength="14.816">W</tspan><tspan x="14.22" y="15" font-family="Helvetica Neue" font-size="16" font-weight="500" textLength="107.856">eb accessible r</tspan><tspan x="121.788" y="15" font-family="Helvetica Neue" font-size="16" font-weight="500" textLength="40">esour</tspan><tspan x="161.5" y="15" font-family="Helvetica Neue" font-size="16" font-weight="500" textLength="25.184">ces</tspan></text><path fill="url(#h)" d="M491.188 315.249c0-6.963-1.632-7.824-13.553-14.715l-.126-.071C465.525 293.5 465.4 293.5 453.1 293.5h-90.413V367h128.5v-51.751Z"/><path stroke="#000" stroke-linecap="round" stroke-linejoin="round" d="M491.188 315.249c0-6.963-1.632-7.824-13.553-14.715l-.126-.071C465.525 293.5 465.4 293.5 453.1 293.5h-90.413V367h128.5v-51.751Zm0-.359c0-6.604-.126-6.604-25.788-6.604h0c0-14.714 0-14.786-11.546-14.786"/><text fill="#000" transform="translate(367.688 321.75)"><tspan x="35.902" y="14" font-family="Helvetica" font-size="14" font-weight="500" textLength="50.586">frog.jpg</tspan></text><path fill="url(#i)" d="M491.188 399.249c0-6.963-1.632-7.824-13.553-14.715l-.126-.071C465.525 377.5 465.4 377.5 453.1 377.5h-90.413V451h128.5v-51.751Z"/><path stroke="#000" stroke-linecap="round" stroke-linejoin="round" d="M491.188 399.249c0-6.963-1.632-7.824-13.553-14.715l-.126-.071C465.525 377.5 465.4 377.5 453.1 377.5h-90.413V451h128.5v-51.751Zm0-.359c0-6.604-.126-6.604-25.788-6.604h0c0-14.714 0-14.786-11.546-14.786"/><text fill="#000" transform="translate(367.688 405.75)"><tspan x="29.285" y="14" font-family="Helvetica" font-size="14" font-weight="500" textLength="63.82">snake.jpg</tspan></text><path fill="url(#j)" d="M491.188 483.249c0-6.963-1.632-7.824-13.553-14.715l-.126-.071C465.525 461.5 465.4 461.5 453.1 461.5h-90.413V535h128.5v-51.751Z"/><path stroke="#000" stroke-linecap="round" stroke-linejoin="round" d="M491.188 483.249c0-6.963-1.632-7.824-13.553-14.715l-.126-.071C465.525 461.5 465.4 461.5 453.1 461.5h-90.413V535h128.5v-51.751Zm0-.359c0-6.604-.126-6.604-25.788-6.604h0c0-14.714 0-14.786-11.546-14.786"/><text fill="#000" transform="translate(367.688 489.75)"><tspan x="32.402" y="14" font-family="Helvetica" font-size="14" font-weight="500" textLength="57.586">turtle.jpg</tspan></text><path stroke="#000" stroke-linecap="round" stroke-linejoin="round" marker-end="url(#k)" d="m298.5 179 119.731 64.788"/><path stroke="#000" stroke-linecap="round" stroke-linejoin="round" marker-end="url(#k)" d="m298.5 179-107.079 64.398"/><path stroke="#000" stroke-linecap="round" stroke-linejoin="round" marker-end="url(#k)" d="M250.75 644.125h97.638"/></g></svg>