<svg xmlns="http://www.w3.org/2000/svg" style="background-color:#fff" width="630" height="360"><g transform="translate(.5 .5)"><circle cx="294" cy="248" r="110" fill="#fff" stroke="#000" stroke-dasharray="3 3" pointer-events="none"/><path fill="none" stroke="#000" stroke-miterlimit="10" stroke-width="5" d="M199 248h190" pointer-events="none"/><path fill="#fff" stroke="#000" d="M247 188h94v24h-94zm0 24h94v24h-94zm0 24h94v24h-94z" pointer-events="none"/><path fill="#fff" stroke="#000" d="M247 258h94v24h-94zm0 24h94v24h-94z" pointer-events="none"/><path fill="none" stroke="#000" stroke-miterlimit="10" stroke-width="2" d="M249 188v120m94-120v120" pointer-events="none"/><path fill="#fff" stroke="#000" d="M284 180h24v16h-24z" pointer-events="none"/><text x="3" y="9" font-family="Helvetica" font-size="8" text-anchor="middle" transform="translate(293 183)">L</text><path fill="#fff" stroke="#000" d="M284 203h24v16h-24z" pointer-events="none"/><text x="4" y="9" font-family="Helvetica" font-size="8" text-anchor="middle" transform="translate(293 206)">R</text><path fill="#fff" stroke="#000" d="M284 227h24v16h-24z" pointer-events="none"/><text x="7" y="9" font-family="Helvetica" font-size="8" text-anchor="middle" transform="translate(290 230)">SL</text><path fill="#fff" stroke="#000" d="M284 250h24v16h-24z" pointer-events="none"/><text x="7" y="9" font-family="Helvetica" font-size="8" text-anchor="middle" transform="translate(289 253)">SR</text><path fill="#fff" stroke="#000" d="M284 274h24v16h-24z" pointer-events="none"/><text x="4" y="9" font-family="Helvetica" font-size="8" text-anchor="middle" transform="translate(293 277)">C</text><path fill="#fff" stroke="#000" d="M284 298h24v16h-24z" pointer-events="none"/><text x="10" y="9" font-family="Helvetica" font-size="8" text-anchor="middle" transform="translate(287 301)">LFE</text><path fill="none" stroke="#000" stroke-miterlimit="10" stroke-width="3" d="M9 27h119.9" pointer-events="none"/><path stroke="#000" stroke-miterlimit="10" stroke-width="3" d="m135.65 27-9 4.5 2.25-4.5-2.25-4.5z" pointer-events="none"/><path fill="none" stroke="#000" stroke-dasharray="3 3" stroke-miterlimit="10" d="m74 47 129 135" pointer-events="none"/><path fill="none" stroke="#000" stroke-miterlimit="10" stroke-width="3" d="M278 26h119.9" pointer-events="none"/><path stroke="#000" stroke-miterlimit="10" stroke-width="3" d="m404.65 26-9 4.5 2.25-4.5-2.25-4.5z" pointer-events="none"/><path fill="none" stroke="#000" stroke-miterlimit="10" stroke-width="3" d="M278 49h55.5q10 0 10 10v47q0 10 10 10h45.4" pointer-events="none"/><path stroke="#000" stroke-miterlimit="10" stroke-width="3" d="m405.65 116-9 4.5 2.25-4.5-2.25-4.5z" pointer-events="none"/><path fill="none" stroke="#000" stroke-miterlimit="10" stroke-width="3" d="M549 25h59.9" pointer-events="none"/><path stroke="#000" stroke-miterlimit="10" stroke-width="3" d="m615.65 25-9 4.5 2.25-4.5-2.25-4.5z" pointer-events="none"/><text y="22" font-family="Helvetica" font-size="10" text-anchor="left" transform="translate(421 216)">Chaque entrée / sortie est <tspan x="0" dy="1.5em">composée de plusieurs canaux.</tspan> <tspan x="0" dy="1.5em">Ici on voit une configuration 5.1</tspan></text><path fill="#719fd0" stroke="#000" d="M151 13h118v50H151z" pointer-events="none"/><text x="34" y="12" font-family="Helvetica" font-size="12" text-anchor="middle" transform="translate(176 32)">Noeud audio</text><path fill="none" stroke="#000" stroke-miterlimit="10" stroke-width="3" d="M9 47h119.9" pointer-events="none"/><path stroke="#000" stroke-miterlimit="10" stroke-width="3" d="m135.65 47-9 4.5 2.25-4.5-2.25-4.5z" pointer-events="none"/><path fill="#719fd0" stroke="#000" d="M419 1h118v50H419z" pointer-events="none"/><text x="34" y="12" font-family="Helvetica" font-size="12" text-anchor="middle" transform="translate(444 20)">Noeud audio</text><path fill="#719fd0" stroke="#000" d="M419 91h118v50H419z" pointer-events="none"/><text x="34" y="12" font-family="Helvetica" font-size="12" text-anchor="middle" transform="translate(444 110)">Noeud audio</text><text x="19" y="10" font-family="Helvetica" font-size="10" text-anchor="middle" transform="translate(41 12)">Sources</text><text x="24" y="10" font-family="Helvetica" font-size="10" text-anchor="middle" transform="translate(308 11)">Destination</text></g></svg>