<svg xmlns="http://www.w3.org/2000/svg" xmlns:xl="http://www.w3.org/1999/xlink" width="632pt" height="653pt" viewBox="141 24 632 653"><defs><linearGradient id="a" x1="0" x2="1" gradientUnits="userSpaceOnUse"><stop offset="0" stop-color="#e5f2f2"/><stop offset="1" stop-color="#cff2f2"/></linearGradient><linearGradient id="b" gradientTransform="matrix(0 65 -65 0 194 257.5)" xl:href="#a"/><linearGradient id="d" gradientTransform="matrix(0 41 -41 0 453.5 88.5)" xl:href="#a"/><linearGradient id="e" gradientTransform="matrix(0 41 -41 0 465.5 77.5)" xl:href="#a"/><linearGradient id="f" gradientTransform="matrix(0 41 -41 0 477.25 65.5)" xl:href="#a"/><linearGradient id="g" gradientTransform="matrix(0 41 -41 0 543 89)" xl:href="#a"/><linearGradient id="h" gradientTransform="matrix(0 41 -41 0 555 78)" xl:href="#a"/><linearGradient id="i" gradientTransform="matrix(0 41 -41 0 566.75 66)" xl:href="#a"/><linearGradient id="j" gradientTransform="matrix(0 41 -41 0 452.5 226.75)" xl:href="#a"/><linearGradient id="k" gradientTransform="matrix(0 41 -41 0 464.5 215.75)" xl:href="#a"/><linearGradient id="l" gradientTransform="rotate(90 136.25 340) scale(41)" xl:href="#a"/><linearGradient id="m" gradientTransform="matrix(0 41 -41 0 542 227.25)" xl:href="#a"/><linearGradient id="n" gradientTransform="matrix(0 41 -41 0 554 216.25)" xl:href="#a"/><linearGradient id="o" gradientTransform="rotate(90 180.75 385) scale(41)" xl:href="#a"/><linearGradient id="p" gradientTransform="matrix(0 41 -41 0 453.625 374)" xl:href="#a"/><linearGradient id="q" gradientTransform="matrix(0 41 -41 0 465.625 363)" xl:href="#a"/><linearGradient id="r" gradientTransform="matrix(0 41 -41 0 477.375 351)" xl:href="#a"/><linearGradient id="s" gradientTransform="matrix(0 41 -41 0 565.59 374)" xl:href="#a"/><linearGradient id="t" gradientTransform="matrix(0 41 -41 0 635.125 374)" xl:href="#a"/><linearGradient id="u" gradientTransform="matrix(0 41 -41 0 704.66 374)" xl:href="#a"/><linearGradient id="v" gradientTransform="matrix(0 41 -41 0 451.75 534.75)" xl:href="#a"/><linearGradient id="w" gradientTransform="rotate(90 -30 493.75) scale(41)" xl:href="#a"/><linearGradient id="x" gradientTransform="matrix(0 41 -41 0 475.5 511.75)" xl:href="#a"/><linearGradient id="y" gradientTransform="rotate(90 5.5 540.25) scale(41)" xl:href="#a"/><linearGradient id="z" gradientTransform="rotate(90 17 540.75) scale(41)" xl:href="#a"/><linearGradient id="A" gradientTransform="matrix(0 41 -41 0 569.5 511.75)" xl:href="#a"/><linearGradient id="B" gradientTransform="matrix(0 41 -41 0 451.875 614.25)" xl:href="#a"/><linearGradient id="C" gradientTransform="matrix(0 41 -41 0 463.875 603.25)" xl:href="#a"/><linearGradient id="D" gradientTransform="matrix(0 41 -41 0 475.625 591.25)" xl:href="#a"/><linearGradient id="E" gradientTransform="matrix(0 41 -41 0 545.375 614.25)" xl:href="#a"/><linearGradient id="F" gradientTransform="matrix(0 41 -41 0 557.375 603.25)" xl:href="#a"/><linearGradient id="G" gradientTransform="matrix(0 41 -41 0 569.125 591.25)" xl:href="#a"/><marker id="c" color="#000" markerHeight="8" markerUnits="strokeWidth" markerWidth="10" orient="auto" overflow="visible" viewBox="-1 -4 10 8"><path fill="currentColor" stroke="currentColor" d="M8 0 0-3v6Z"/></marker></defs><g fill="none"><path fill="url(#b)" d="M245 276.733c0-6.157-1.295-6.919-10.758-13.012l-.1-.064c-9.512-6.157-9.611-6.157-19.374-6.157H143v65h102v-45.767Z"/><path stroke="#000" stroke-linecap="round" stroke-linejoin="round" d="M245 276.733c0-6.157-1.295-6.919-10.758-13.012l-.1-.064c-9.512-6.157-9.611-6.157-19.374-6.157H143v65h102v-45.767Zm0-.317c0-5.84-.1-5.84-20.47-5.84h0c0-13.012 0-13.076-9.164-13.076"/><text fill="#000" transform="translate(148 281.5)"><tspan x="4.759" y="14" font-family="Helvetica" font-size="14" font-weight="500" textLength="82.482">manifest.json</tspan></text><path fill="#fff" d="M409 304h362v146H409z"/><path stroke="#000" stroke-dasharray="1 4" stroke-linecap="round" stroke-linejoin="round" d="M409 304h362v146H409Z"/><text fill="#000" transform="translate(527 312.125)"><tspan x=".232" y="15" font-family="Helvetica Neue" font-size="16" font-weight="500" textLength="16.288">Br</tspan><tspan x="16.232" y="15" font-family="Helvetica Neue" font-size="16" font-weight="500" textLength="91.536">owser action</tspan></text><path fill="#fff" d="M522 343.5h227.75v87H522z"/><path stroke="#000" stroke-dasharray="1 4" stroke-linecap="round" stroke-linejoin="round" d="M522 343.5h227.75v87H522Z"/><text fill="#000" transform="translate(607.875 349.5)"><tspan x=".288" y="15" font-family="Helvetica Neue" font-size="16" font-weight="500" textLength="47.424">Popup</tspan></text><path fill="#fff" d="M410 26.5h196.25v119H410z"/><path stroke="#000" stroke-dasharray="1 4" stroke-linecap="round" stroke-linejoin="round" d="M410 26.5h196.25v119H410Z"/><text fill="#000" transform="translate(438.054 33.75)"><tspan x="2.351" y="15" font-family="Helvetica Neue" font-size="16" font-weight="500" textLength="50.96">Backgr</tspan><tspan x="53.023" y="15" font-family="Helvetica Neue" font-size="16" font-weight="500" textLength="84.768">ound pages</tspan></text><path stroke="#000" stroke-linecap="round" stroke-linejoin="round" marker-end="url(#c)" d="M245 290 403.774 93.697"/><path stroke="#000" stroke-linecap="round" stroke-linejoin="round" marker-end="url(#c)" d="m245 290 155.254 82.361"/><path fill="#fff" d="M407 471.75h208.875v202.5H407z"/><path stroke="#000" stroke-dasharray="1 4" stroke-linecap="round" stroke-linejoin="round" d="M407 471.75h208.875v202.5H407Z"/><text fill="#000" transform="translate(417.938 483.25)"><tspan x=".316" y="15" font-family="Helvetica Neue" font-size="16" font-weight="500" textLength="14.816">W</tspan><tspan x="14.22" y="15" font-family="Helvetica Neue" font-size="16" font-weight="500" textLength="107.856">eb accessible r</tspan><tspan x="121.788" y="15" font-family="Helvetica Neue" font-size="16" font-weight="500" textLength="40">esour</tspan><tspan x="161.5" y="15" font-family="Helvetica Neue" font-size="16" font-weight="500" textLength="25.184">ces</tspan></text><path fill="url(#d)" d="M479.25 100.632c0-3.884-.654-4.365-5.432-8.208l-.05-.04c-4.803-3.884-4.853-3.884-9.782-3.884H427.75v41h51.5v-28.868Z"/><path stroke="#000" stroke-linecap="round" stroke-linejoin="round" d="M479.25 100.632c0-3.884-.654-4.365-5.432-8.208l-.05-.04c-4.803-3.884-4.853-3.884-9.782-3.884H427.75v41h51.5v-28.868Zm0-.2c0-3.684-.05-3.684-10.335-3.684h0c0-8.208 0-8.248-4.627-8.248"/><path fill="url(#e)" d="M491.25 89.632c0-3.884-.654-4.365-5.432-8.208l-.05-.04c-4.803-3.884-4.853-3.884-9.782-3.884H439.75v41h51.5V89.632Z"/><path stroke="#000" stroke-linecap="round" stroke-linejoin="round" d="M491.25 89.632c0-3.884-.654-4.365-5.432-8.208l-.05-.04c-4.803-3.884-4.853-3.884-9.782-3.884H439.75v41h51.5V89.632Zm0-.2c0-3.684-.05-3.684-10.335-3.684h0c0-8.208 0-8.248-4.627-8.248"/><path fill="url(#f)" d="M503 77.632c0-3.884-.654-4.365-5.432-8.208l-.05-.04c-4.803-3.884-4.853-3.884-9.782-3.884H451.5v41H503V77.632Z"/><path stroke="#000" stroke-linecap="round" stroke-linejoin="round" d="M503 77.632c0-3.884-.654-4.365-5.432-8.208l-.05-.04c-4.803-3.884-4.853-3.884-9.782-3.884H451.5v41H503V77.632Zm0-.2c0-3.684-.05-3.684-10.335-3.684h0c0-8.208 0-8.248-4.627-8.248"/><text fill="#000" transform="translate(456.5 77.5)"><tspan x="1.951" y="14" font-family="Helvetica" font-size="14" font-weight="500" textLength="38.11">HTML</tspan></text><path fill="url(#g)" d="M568.75 101.132c0-3.884-.654-4.365-5.432-8.208l-.05-.04C558.465 89 558.415 89 553.486 89H517.25v41h51.5v-28.868Z"/><path stroke="#000" stroke-linecap="round" stroke-linejoin="round" d="M568.75 101.132c0-3.884-.654-4.365-5.432-8.208l-.05-.04C558.465 89 558.415 89 553.486 89H517.25v41h51.5v-28.868Zm0-.2c0-3.684-.05-3.684-10.335-3.684h0c0-8.208 0-8.248-4.627-8.248"/><path fill="url(#h)" d="M580.75 90.132c0-3.884-.654-4.365-5.432-8.208l-.05-.04C570.465 78 570.415 78 565.486 78H529.25v41h51.5V90.132Z"/><path stroke="#000" stroke-linecap="round" stroke-linejoin="round" d="M580.75 90.132c0-3.884-.654-4.365-5.432-8.208l-.05-.04C570.465 78 570.415 78 565.486 78H529.25v41h51.5V90.132Zm0-.2c0-3.684-.05-3.684-10.335-3.684h0c0-8.208 0-8.248-4.627-8.248"/><path fill="url(#i)" d="M592.5 78.132c0-3.884-.654-4.365-5.432-8.208l-.05-.04C582.215 66 582.165 66 577.236 66H541v41h51.5V78.132Z"/><path stroke="#000" stroke-linecap="round" stroke-linejoin="round" d="M592.5 78.132c0-3.884-.654-4.365-5.432-8.208l-.05-.04C582.215 66 582.165 66 577.236 66H541v41h51.5V78.132Zm0-.2c0-3.684-.05-3.684-10.335-3.684h0c0-8.208 0-8.248-4.627-8.248"/><text fill="#000" transform="translate(546 78)"><tspan x="12.581" y="14" font-family="Helvetica" font-size="14" font-weight="500" textLength="20.228">JS</tspan></text><path fill="#fff" d="M409 164.75h196.25v119H409z"/><path stroke="#000" stroke-dasharray="1 4" stroke-linecap="round" stroke-linejoin="round" d="M409 164.75h196.25v119H409Z"/><text fill="#000" transform="translate(450.84 170.75)"><tspan x="2.461" y="15" font-family="Helvetica Neue" font-size="16" font-weight="500" textLength="109.648">Content scripts</tspan></text><path fill="url(#j)" d="M478.25 238.882c0-3.884-.654-4.365-5.432-8.208l-.05-.04c-4.803-3.884-4.853-3.884-9.782-3.884H426.75v41h51.5v-28.868Z"/><path stroke="#000" stroke-linecap="round" stroke-linejoin="round" d="M478.25 238.882c0-3.884-.654-4.365-5.432-8.208l-.05-.04c-4.803-3.884-4.853-3.884-9.782-3.884H426.75v41h51.5v-28.868Zm0-.2c0-3.684-.05-3.684-10.335-3.684h0c0-8.208 0-8.248-4.627-8.248"/><path fill="url(#k)" d="M490.25 227.882c0-3.884-.654-4.365-5.432-8.208l-.05-.04c-4.803-3.884-4.853-3.884-9.782-3.884H438.75v41h51.5v-28.868Z"/><path stroke="#000" stroke-linecap="round" stroke-linejoin="round" d="M490.25 227.882c0-3.884-.654-4.365-5.432-8.208l-.05-.04c-4.803-3.884-4.853-3.884-9.782-3.884H438.75v41h51.5v-28.868Zm0-.2c0-3.684-.05-3.684-10.335-3.684h0c0-8.208 0-8.248-4.627-8.248"/><path fill="url(#l)" d="M502 215.882c0-3.884-.654-4.365-5.432-8.208l-.05-.04c-4.803-3.884-4.853-3.884-9.782-3.884H450.5v41H502v-28.868Z"/><path stroke="#000" stroke-linecap="round" stroke-linejoin="round" d="M502 215.882c0-3.884-.654-4.365-5.432-8.208l-.05-.04c-4.803-3.884-4.853-3.884-9.782-3.884H450.5v41H502v-28.868Zm0-.2c0-3.684-.05-3.684-10.335-3.684h0c0-8.208 0-8.248-4.627-8.248"/><text fill="#000" transform="translate(455.5 215.75)"><tspan x="12.581" y="14" font-family="Helvetica" font-size="14" font-weight="500" textLength="20.228">JS</tspan></text><path fill="url(#m)" d="M567.75 239.382c0-3.884-.654-4.365-5.432-8.208l-.05-.04c-4.803-3.884-4.853-3.884-9.782-3.884H516.25v41h51.5v-28.868Z"/><path stroke="#000" stroke-linecap="round" stroke-linejoin="round" d="M567.75 239.382c0-3.884-.654-4.365-5.432-8.208l-.05-.04c-4.803-3.884-4.853-3.884-9.782-3.884H516.25v41h51.5v-28.868Zm0-.2c0-3.684-.05-3.684-10.335-3.684h0c0-8.208 0-8.248-4.627-8.248"/><path fill="url(#n)" d="M579.75 228.382c0-3.884-.654-4.365-5.432-8.208l-.05-.04c-4.803-3.884-4.853-3.884-9.782-3.884H528.25v41h51.5v-28.868Z"/><path stroke="#000" stroke-linecap="round" stroke-linejoin="round" d="M579.75 228.382c0-3.884-.654-4.365-5.432-8.208l-.05-.04c-4.803-3.884-4.853-3.884-9.782-3.884H528.25v41h51.5v-28.868Zm0-.2c0-3.684-.05-3.684-10.335-3.684h0c0-8.208 0-8.248-4.627-8.248"/><path fill="url(#o)" d="M591.5 216.382c0-3.884-.654-4.365-5.432-8.208l-.05-.04c-4.803-3.884-4.853-3.884-9.782-3.884H540v41h51.5v-28.868Z"/><path stroke="#000" stroke-linecap="round" stroke-linejoin="round" d="M591.5 216.382c0-3.884-.654-4.365-5.432-8.208l-.05-.04c-4.803-3.884-4.853-3.884-9.782-3.884H540v41h51.5v-28.868Zm0-.2c0-3.684-.05-3.684-10.335-3.684h0c0-8.208 0-8.248-4.627-8.248"/><text fill="#000" transform="translate(545 216.25)"><tspan x="6.357" y="14" font-family="Helvetica" font-size="14" font-weight="500" textLength="32.676">CSS</tspan></text><path fill="url(#p)" d="M479.375 386.132c0-3.884-.654-4.365-5.432-8.208l-.05-.04C469.09 374 469.04 374 464.11 374h-36.236v41h51.5v-28.868Z"/><path stroke="#000" stroke-linecap="round" stroke-linejoin="round" d="M479.375 386.132c0-3.884-.654-4.365-5.432-8.208l-.05-.04C469.09 374 469.04 374 464.11 374h-36.236v41h51.5v-28.868Zm0-.2c0-3.684-.05-3.684-10.335-3.684h0c0-8.208 0-8.248-4.627-8.248"/><path fill="url(#q)" d="M491.375 375.132c0-3.884-.654-4.365-5.432-8.208l-.05-.04C481.09 363 481.04 363 476.11 363h-36.236v41h51.5v-28.868Z"/><path stroke="#000" stroke-linecap="round" stroke-linejoin="round" d="M491.375 375.132c0-3.884-.654-4.365-5.432-8.208l-.05-.04C481.09 363 481.04 363 476.11 363h-36.236v41h51.5v-28.868Zm0-.2c0-3.684-.05-3.684-10.335-3.684h0c0-8.208 0-8.248-4.627-8.248"/><path fill="url(#r)" d="M503.125 363.132c0-3.884-.654-4.365-5.432-8.208l-.05-.04C492.84 351 492.79 351 487.86 351h-36.236v41h51.5v-28.868Z"/><path stroke="#000" stroke-linecap="round" stroke-linejoin="round" d="M503.125 363.132c0-3.884-.654-4.365-5.432-8.208l-.05-.04C492.84 351 492.79 351 487.86 351h-36.236v41h51.5v-28.868Zm0-.2c0-3.684-.05-3.684-10.335-3.684h0c0-8.208 0-8.248-4.627-8.248"/><text fill="#000" transform="translate(456.625 363)"><tspan x="4.409" y="14" font-family="Helvetica" font-size="14" font-weight="500" textLength="36.572">icons</tspan></text><path fill="url(#s)" d="M591.34 386.132c0-3.884-.654-4.365-5.432-8.208l-.05-.04C581.054 374 581.004 374 576.075 374H539.84v41h51.5v-28.868Z"/><path stroke="#000" stroke-linecap="round" stroke-linejoin="round" d="M591.34 386.132c0-3.884-.654-4.365-5.432-8.208l-.05-.04C581.054 374 581.004 374 576.075 374H539.84v41h51.5v-28.868Zm0-.2c0-3.684-.05-3.684-10.335-3.684h0c0-8.208 0-8.248-4.628-8.248"/><text fill="#000" transform="translate(544.84 386)"><tspan x="1.951" y="14" font-family="Helvetica" font-size="14" font-weight="500" textLength="38.11">HTML</tspan></text><path fill="url(#t)" d="M660.875 386.132c0-3.884-.654-4.365-5.432-8.208l-.05-.04C650.59 374 650.54 374 645.61 374h-36.236v41h51.5v-28.868Z"/><path stroke="#000" stroke-linecap="round" stroke-linejoin="round" d="M660.875 386.132c0-3.884-.654-4.365-5.432-8.208l-.05-.04C650.59 374 650.54 374 645.61 374h-36.236v41h51.5v-28.868Zm0-.2c0-3.684-.05-3.684-10.335-3.684h0c0-8.208 0-8.248-4.627-8.248"/><text fill="#000" transform="translate(614.375 386)"><tspan x="12.581" y="14" font-family="Helvetica" font-size="14" font-weight="500" textLength="20.228">JS</tspan></text><path fill="url(#u)" d="M730.41 386.132c0-3.884-.654-4.365-5.431-8.208l-.05-.04C720.124 374 720.074 374 715.145 374H678.91v41h51.5v-28.868Z"/><path stroke="#000" stroke-linecap="round" stroke-linejoin="round" d="M730.41 386.132c0-3.884-.654-4.365-5.431-8.208l-.05-.04C720.124 374 720.074 374 715.145 374H678.91v41h51.5v-28.868Zm0-.2c0-3.684-.05-3.684-10.335-3.684h0c0-8.208 0-8.248-4.627-8.248"/><text fill="#000" transform="translate(683.91 386)"><tspan x="6.357" y="14" font-family="Helvetica" font-size="14" font-weight="500" textLength="32.676">CSS</tspan></text><path fill="url(#v)" d="M477.5 546.882c0-3.884-.654-4.365-5.432-8.208l-.05-.04c-4.803-3.884-4.853-3.884-9.782-3.884H426v41h51.5v-28.868Z"/><path stroke="#000" stroke-linecap="round" stroke-linejoin="round" d="M477.5 546.882c0-3.884-.654-4.365-5.432-8.208l-.05-.04c-4.803-3.884-4.853-3.884-9.782-3.884H426v41h51.5v-28.868Zm0-.2c0-3.684-.05-3.684-10.335-3.684h0c0-8.208 0-8.248-4.627-8.248"/><path fill="url(#w)" d="M489.5 535.882c0-3.884-.654-4.365-5.432-8.208l-.05-.04c-4.803-3.884-4.853-3.884-9.782-3.884H438v41h51.5v-28.868Z"/><path stroke="#000" stroke-linecap="round" stroke-linejoin="round" d="M489.5 535.882c0-3.884-.654-4.365-5.432-8.208l-.05-.04c-4.803-3.884-4.853-3.884-9.782-3.884H438v41h51.5v-28.868Zm0-.2c0-3.684-.05-3.684-10.335-3.684h0c0-8.208 0-8.248-4.627-8.248"/><path fill="url(#x)" d="M501.25 523.882c0-3.884-.654-4.365-5.432-8.208l-.05-.04c-4.803-3.884-4.853-3.884-9.782-3.884H449.75v41h51.5v-28.868Z"/><path stroke="#000" stroke-linecap="round" stroke-linejoin="round" d="M501.25 523.882c0-3.884-.654-4.365-5.432-8.208l-.05-.04c-4.803-3.884-4.853-3.884-9.782-3.884H449.75v41h51.5v-28.868Zm0-.2c0-3.684-.05-3.684-10.335-3.684h0c0-8.208 0-8.248-4.627-8.248"/><text fill="#000" transform="translate(454.75 523.75)"><tspan x="1.951" y="14" font-family="Helvetica" font-size="14" font-weight="500" textLength="38.11">HTML</tspan></text><path fill="url(#y)" d="M571.5 546.882c0-3.884-.654-4.365-5.432-8.208l-.05-.04c-4.803-3.884-4.853-3.884-9.782-3.884H520v41h51.5v-28.868Z"/><path stroke="#000" stroke-linecap="round" stroke-linejoin="round" d="M571.5 546.882c0-3.884-.654-4.365-5.432-8.208l-.05-.04c-4.803-3.884-4.853-3.884-9.782-3.884H520v41h51.5v-28.868Zm0-.2c0-3.684-.05-3.684-10.335-3.684h0c0-8.208 0-8.248-4.627-8.248"/><path fill="url(#z)" d="M583.5 535.882c0-3.884-.654-4.365-5.432-8.208l-.05-.04c-4.803-3.884-4.853-3.884-9.782-3.884H532v41h51.5v-28.868Z"/><path stroke="#000" stroke-linecap="round" stroke-linejoin="round" d="M583.5 535.882c0-3.884-.654-4.365-5.432-8.208l-.05-.04c-4.803-3.884-4.853-3.884-9.782-3.884H532v41h51.5v-28.868Zm0-.2c0-3.684-.05-3.684-10.335-3.684h0c0-8.208 0-8.248-4.627-8.248"/><path fill="url(#A)" d="M595.25 523.882c0-3.884-.654-4.365-5.432-8.208l-.05-.04c-4.803-3.884-4.853-3.884-9.782-3.884H543.75v41h51.5v-28.868Z"/><path stroke="#000" stroke-linecap="round" stroke-linejoin="round" d="M595.25 523.882c0-3.884-.654-4.365-5.432-8.208l-.05-.04c-4.803-3.884-4.853-3.884-9.782-3.884H543.75v41h51.5v-28.868Zm0-.2c0-3.684-.05-3.684-10.335-3.684h0c0-8.208 0-8.248-4.627-8.248"/><text fill="#000" transform="translate(548.75 523.75)"><tspan x="12.581" y="14" font-family="Helvetica" font-size="14" font-weight="500" textLength="20.228">JS</tspan></text><path fill="url(#B)" d="M477.625 626.382c0-3.884-.654-4.365-5.432-8.208l-.05-.04c-4.803-3.884-4.853-3.884-9.782-3.884h-36.236v41h51.5v-28.868Z"/><path stroke="#000" stroke-linecap="round" stroke-linejoin="round" d="M477.625 626.382c0-3.884-.654-4.365-5.432-8.208l-.05-.04c-4.803-3.884-4.853-3.884-9.782-3.884h-36.236v41h51.5v-28.868Zm0-.2c0-3.684-.05-3.684-10.335-3.684h0c0-8.208 0-8.248-4.627-8.248"/><path fill="url(#C)" d="M489.625 615.382c0-3.884-.654-4.365-5.432-8.208l-.05-.04c-4.803-3.884-4.853-3.884-9.782-3.884h-36.236v41h51.5v-28.868Z"/><path stroke="#000" stroke-linecap="round" stroke-linejoin="round" d="M489.625 615.382c0-3.884-.654-4.365-5.432-8.208l-.05-.04c-4.803-3.884-4.853-3.884-9.782-3.884h-36.236v41h51.5v-28.868Zm0-.2c0-3.684-.05-3.684-10.335-3.684h0c0-8.208 0-8.248-4.627-8.248"/><path fill="url(#D)" d="M501.375 603.382c0-3.884-.654-4.365-5.432-8.208l-.05-.04c-4.803-3.884-4.853-3.884-9.782-3.884h-36.236v41h51.5v-28.868Z"/><path stroke="#000" stroke-linecap="round" stroke-linejoin="round" d="M501.375 603.382c0-3.884-.654-4.365-5.432-8.208l-.05-.04c-4.803-3.884-4.853-3.884-9.782-3.884h-36.236v41h51.5v-28.868Zm0-.2c0-3.684-.05-3.684-10.335-3.684h0c0-8.208 0-8.248-4.627-8.248"/><text fill="#000" transform="translate(454.875 603.25)"><tspan x="6.357" y="14" font-family="Helvetica" font-size="14" font-weight="500" textLength="32.676">CSS</tspan></text><path fill="url(#E)" d="M571.125 626.382c0-3.884-.654-4.365-5.432-8.208l-.05-.04c-4.803-3.884-4.853-3.884-9.782-3.884h-36.236v41h51.5v-28.868Z"/><path stroke="#000" stroke-linecap="round" stroke-linejoin="round" d="M571.125 626.382c0-3.884-.654-4.365-5.432-8.208l-.05-.04c-4.803-3.884-4.853-3.884-9.782-3.884h-36.236v41h51.5v-28.868Zm0-.2c0-3.684-.05-3.684-10.335-3.684h0c0-8.208 0-8.248-4.627-8.248"/><path fill="url(#F)" d="M583.125 615.382c0-3.884-.654-4.365-5.432-8.208l-.05-.04c-4.803-3.884-4.853-3.884-9.782-3.884h-36.236v41h51.5v-28.868Z"/><path stroke="#000" stroke-linecap="round" stroke-linejoin="round" d="M583.125 615.382c0-3.884-.654-4.365-5.432-8.208l-.05-.04c-4.803-3.884-4.853-3.884-9.782-3.884h-36.236v41h51.5v-28.868Zm0-.2c0-3.684-.05-3.684-10.335-3.684h0c0-8.208 0-8.248-4.627-8.248"/><path fill="url(#G)" d="M594.875 603.382c0-3.884-.654-4.365-5.432-8.208l-.05-.04c-4.803-3.884-4.853-3.884-9.782-3.884h-36.236v41h51.5v-28.868Z"/><path stroke="#000" stroke-linecap="round" stroke-linejoin="round" d="M594.875 603.382c0-3.884-.654-4.365-5.432-8.208l-.05-.04c-4.803-3.884-4.853-3.884-9.782-3.884h-36.236v41h51.5v-28.868Zm0-.2c0-3.684-.05-3.684-10.335-3.684h0c0-8.208 0-8.248-4.627-8.248"/><text fill="#000" transform="translate(548.375 603.25)"><tspan x="13.75" y="14" font-family="Helvetica" font-size="14" font-weight="500" textLength="17.89">…</tspan></text><path stroke="#000" stroke-linecap="round" stroke-linejoin="round" marker-end="url(#c)" d="m245 290 154.811-62.066"/><path stroke="#000" stroke-linecap="round" stroke-linejoin="round" marker-end="url(#c)" d="m245 290 157.082 274.408"/></g></svg>